<svg width="36" height="38" viewBox="0 0 36 38" fill="none" xmlns="http://www.w3.org/2000/svg">
<path d="M32.6354 36.9663V17.5358C32.6354 15.655 31.909 14.9844 30.2244 14.9844H29.0344C27.3499 14.9844 26.6235 15.655 26.6235 17.5358V36.9663" stroke="#060404" stroke-width="1.5" stroke-linecap="round" stroke-linejoin="round"/>
<path d="M21.0143 36.9672V22.8523C21.0143 20.9714 20.2879 20.3008 18.6034 20.3008H17.3979C15.7134 20.3008 15.0024 20.9714 15.0024 22.8523V36.9672" stroke="#060404" stroke-width="1.5" stroke-linecap="round" stroke-linejoin="round"/>
<path d="M9.32969 36.9685V28.2019C9.32969 26.321 8.60333 25.6504 6.91878 25.6504H5.71333C4.02878 25.6504 3.31787 26.321 3.31787 28.2019V37.0012" stroke="#060404" stroke-width="1.5" stroke-linecap="round" stroke-linejoin="round"/>
<path d="M1 36.9648H35" stroke="#060404" stroke-width="1.5" stroke-linecap="round" stroke-linejoin="round"/>
<path d="M3.30322 12.1391L31.245 4.69727" stroke="#060404" stroke-width="1.5" stroke-linecap="round" stroke-linejoin="round"/>
<path d="M29.544 10.2082L31.7385 5.98847C31.9761 5.53296 32.033 4.99626 31.8968 4.49636C31.7606 3.99645 31.4424 3.57423 31.0122 3.32249L27.0249 1" stroke="#060404" stroke-width="1.5" stroke-linecap="round" stroke-linejoin="round"/>
</svg>
