<svg width="30" height="30" viewBox="0 0 30 30" fill="none" xmlns="http://www.w3.org/2000/svg">
<path fill-rule="evenodd" clip-rule="evenodd" d="M11.0923 23.3662C11.6101 23.3662 12.0298 23.7859 12.0298 24.3037C12.0298 24.5203 12.0846 24.7439 12.2034 24.9647C12.3229 25.1871 12.5079 25.4068 12.7625 25.6028C13.0173 25.799 13.3316 25.9635 13.6918 26.0784C14.0517 26.1932 14.443 26.2539 14.8418 26.2539C15.2405 26.2539 15.6318 26.1932 15.9917 26.0784C16.3519 25.9635 16.6662 25.799 16.921 25.6028C17.1756 25.4068 17.3606 25.1871 17.4802 24.9647C17.5989 24.7439 17.6537 24.5203 17.6537 24.3037C17.6537 23.7859 18.0735 23.3662 18.5912 23.3662C19.109 23.3662 19.5287 23.7859 19.5287 24.3037C19.5287 24.8456 19.3896 25.3729 19.1315 25.8528C18.8742 26.3312 18.5068 26.7481 18.0651 27.0883C17.6235 27.4284 17.1112 27.6894 16.5615 27.8647C16.0117 28.0401 15.4278 28.1289 14.8418 28.1289C14.2557 28.1289 13.6719 28.0401 13.122 27.8647C12.5723 27.6894 12.06 27.4284 11.6184 27.0883C11.1767 26.7481 10.8093 26.3312 10.552 25.8528C10.2939 25.3729 10.1548 24.8456 10.1548 24.3037C10.1548 23.7859 10.5745 23.3662 11.0923 23.3662Z" fill="#060404"/>
<path fill-rule="evenodd" clip-rule="evenodd" d="M10.3621 2.96168C13.1845 1.55716 16.4918 1.50938 19.3535 2.83178L19.6093 2.94996C22.608 4.33564 24.5279 7.33781 24.5279 10.6412L24.5279 12.2795C24.5279 13.5963 24.8149 14.8974 25.3689 16.092L25.6998 16.8055C27.2193 20.0822 25.2404 23.9122 21.6886 24.5687L21.5182 23.6468L21.6886 24.5687L21.4884 24.6057C17.0945 25.4178 12.5889 25.4178 8.19492 24.6057C4.59538 23.9404 2.69106 19.958 4.43289 16.7385L4.7159 16.2154C5.41449 14.9241 5.78032 13.4792 5.78032 12.011L5.78032 10.3594C5.78032 7.22395 7.55496 4.3586 10.3621 2.96168ZM18.567 4.53385C16.2214 3.44997 13.5107 3.48914 11.1974 4.64032C9.02728 5.72026 7.65532 7.93543 7.65532 10.3594L7.65532 12.011C7.65532 13.7907 7.21186 15.5423 6.36502 17.1076L6.08201 17.6307C4.94594 19.7306 6.18799 22.328 8.53572 22.7619C12.7044 23.5324 16.979 23.5324 21.1476 22.7619L21.3478 22.7249C23.6951 22.291 25.003 19.7598 23.9988 17.5943L23.6679 16.8809C22.9993 15.439 22.6529 13.8688 22.6529 12.2795L22.6529 10.6412C22.6529 8.06885 21.1579 5.73105 18.8228 4.65203L18.567 4.53385Z" fill="#060404"/>
</svg>
