<svg width="30" height="30" viewBox="0 0 30 30" fill="none" xmlns="http://www.w3.org/2000/svg">
<path fill-rule="evenodd" clip-rule="evenodd" d="M18.5023 24.7893C19.2729 24.712 19.7935 25.5299 19.4295 26.192C19.1731 26.6586 18.8115 27.0658 18.3784 27.3993C17.9369 27.7394 17.4246 28.0003 16.8749 28.1757C16.325 28.3511 15.7412 28.4398 15.1551 28.4398C14.5691 28.4398 13.9852 28.3511 13.4354 28.1757C12.8857 28.0003 12.3734 27.7394 11.9318 27.3993C11.4987 27.0658 11.1372 26.6586 10.8808 26.192C10.5168 25.5299 11.0374 24.712 11.8079 24.7893C12.0482 24.8134 13.929 24.9972 15.1551 24.9972C16.3813 24.9972 18.262 24.8134 18.5023 24.7893Z" fill="#004AAD"/>
<path fill-rule="evenodd" clip-rule="evenodd" d="M10.6613 2.60894C13.4916 1.25507 16.8081 1.20901 19.6779 2.48373L19.9344 2.59765C22.9415 3.93335 24.8668 6.82726 24.8668 10.0115L24.8668 11.5907C24.8668 12.8601 25.1546 14.1142 25.7101 15.2658L26.0419 15.9535C27.5656 19.112 25.5812 22.8039 22.0195 23.4367L21.8187 23.4724C17.4125 24.2553 12.8943 24.2553 8.48804 23.4724C4.87843 22.8311 2.96878 18.9924 4.71548 15.8889L4.99928 15.3847C5.69983 14.14 6.06669 12.7471 6.06669 11.332L6.06669 9.73992C6.06669 6.71751 7.8463 3.95549 10.6613 2.60894Z" fill="#004AAD"/>
</svg>
