<svg width="40" height="40" viewBox="0 0 40 40" fill="none" xmlns="http://www.w3.org/2000/svg">
<path d="M1.6665 11.9237C1.6665 9.94117 3.15889 8.33398 4.99984 8.33398H34.9998C36.8408 8.33398 38.3332 9.94117 38.3332 11.9237V28.0776C38.3332 30.0601 36.8408 31.6673 34.9998 31.6673H4.99984C3.15889 31.6673 1.6665 30.0601 1.6665 28.0776V11.9237Z" stroke="#060404" stroke-width="1.5"/>
<path d="M25 20C25 22.7614 22.7614 25 20 25C17.2386 25 15 22.7614 15 20C15 17.2386 17.2386 15 20 15C22.7614 15 25 17.2386 25 20Z" stroke="#060404" stroke-width="1.5"/>
<path d="M6.6665 26.668H11.6665" stroke="#060404" stroke-width="1.5" stroke-linecap="round"/>
<path d="M28.333 13.334H33.333" stroke="#060404" stroke-width="1.5" stroke-linecap="round"/>
</svg>
