<svg width="44" height="44" viewBox="0 0 44 44" fill="none" xmlns="http://www.w3.org/2000/svg">
<path d="M3.6665 14.6663C3.6665 10.6163 6.94975 7.33301 10.9998 7.33301L32.9998 7.33301C37.0499 7.33301 40.3332 10.6163 40.3332 14.6663L40.3332 32.9997C40.3332 37.0498 37.0499 40.333 32.9998 40.333L10.9998 40.333C6.94975 40.333 3.6665 37.0498 3.6665 32.9997L3.6665 14.6663Z" stroke="#060404" stroke-width="1.5"/>
<path d="M13.333 17.916H15.9997L15.9997 20.5827L13.333 20.5827V17.916Z" stroke="#060404" stroke-linecap="round"/>
<path d="M13.333 23.416H15.9997L15.9997 26.0827L13.333 26.0827V23.416Z" stroke="#060404" stroke-linecap="round"/>
<path d="M13.333 28.916L15.9997 28.916L15.9997 31.5827L13.333 31.5827L13.333 28.916Z" stroke="#060404" stroke-linecap="round"/>
<path d="M20.6665 17.916L23.3332 17.916L23.3332 20.5827L20.6665 20.5827L20.6665 17.916Z" stroke="#060404" stroke-linecap="round"/>
<path d="M20.6665 23.416L23.3332 23.416L23.3332 26.0827L20.6665 26.0827L20.6665 23.416Z" stroke="#060404" stroke-linecap="round"/>
<path d="M20.6665 28.916L23.3332 28.916L23.3332 31.5827L20.6665 31.5827L20.6665 28.916Z" stroke="#060404" stroke-linecap="round"/>
<path d="M28 17.916H30.6667L30.6667 20.5827L28 20.5827V17.916Z" stroke="#060404" stroke-linecap="round"/>
<path d="M28 23.416H30.6667L30.6667 26.0827L28 26.0827V23.416Z" stroke="#060404" stroke-linecap="round"/>
<path d="M28 28.916L30.6667 28.916L30.6667 31.5827L28 31.5827L28 28.916Z" stroke="#060404" stroke-linecap="round"/>
<path d="M14.6665 3.66602L14.6665 10.0827" stroke="#060404" stroke-width="1.5" stroke-linecap="round"/>
<path d="M29.333 3.66602L29.333 10.0827" stroke="#060404" stroke-width="1.5" stroke-linecap="round"/>
</svg>
