<svg width="44" height="44" viewBox="0 0 44 44" fill="none" xmlns="http://www.w3.org/2000/svg">
<path d="M3.66699 12.8327C3.66699 7.77007 7.77105 3.66602 12.8337 3.66602H31.167C36.2296 3.66602 40.3337 7.77007 40.3337 12.8327V31.166C40.3337 36.2286 36.2296 40.3327 31.167 40.3327H12.8337C7.77105 40.3327 3.66699 36.2286 3.66699 31.166V12.8327Z" stroke="#060404" stroke-width="1.5"/>
<path d="M18.5352 22.2734H13.6769C12.5219 22.2734 11.5869 23.059 11.5869 24.0295V31.9168H18.5352V22.2734V22.2734Z" stroke="#060404" stroke-width="1.5" stroke-miterlimit="10" stroke-linecap="round" stroke-linejoin="round"/>
<path d="M23.3962 12.0996H20.6095C19.4545 12.0996 18.5195 13.0346 18.5195 14.1896V31.8997H25.4679V14.1896C25.4679 13.0346 24.5512 12.0996 23.3962 12.0996Z" stroke="#060404" stroke-width="1.5" stroke-miterlimit="10" stroke-linecap="round" stroke-linejoin="round"/>
<path d="M30.3388 18.0586H25.4805V31.9003H32.4288V21.5266C32.4105 19.6101 31.4755 18.0586 30.3388 18.0586Z" stroke="#060404" stroke-width="1.5" stroke-miterlimit="10" stroke-linecap="round" stroke-linejoin="round"/>
</svg>
