<svg width="40" height="40" viewBox="0 0 40 40" fill="none" xmlns="http://www.w3.org/2000/svg">
<path fill-rule="evenodd" clip-rule="evenodd" d="M21.8169 28.216C21.8169 25.9793 23.6301 24.166 25.8669 24.166C27.7467 24.166 29.3273 25.4467 29.784 27.1831C29.9268 27.1718 30.0712 27.166 30.2169 27.166C30.6016 27.166 30.9769 27.2062 31.3388 27.2827C30.895 24.6619 28.614 22.666 25.8669 22.666C22.8017 22.666 20.3169 25.1508 20.3169 28.216C20.3169 30.9631 22.3128 33.2441 24.9336 33.6879C24.8571 33.326 24.8169 32.9507 24.8169 32.566C24.8169 32.4203 24.8227 32.2759 24.834 32.1331C23.0976 31.6765 21.8169 30.0958 21.8169 28.216Z" fill="#060404"/>
<path d="M35.4667 33.0168C35.4667 35.6678 33.3177 37.8168 30.6667 37.8168C28.0157 37.8168 25.8667 35.6678 25.8667 33.0168C25.8667 30.3658 28.0157 28.2168 30.6667 28.2168C33.3177 28.2168 35.4667 30.3658 35.4667 33.0168Z" stroke="#060404" stroke-width="1.5"/>
<path d="M13.1501 9.66602L12.4347 7.16227C12.0118 5.68218 13.3495 4.2992 14.8428 4.67254L15.279 4.78159C17.1317 5.24476 19.0889 5.02991 20.797 4.17587L22.9376 3.1056C23.6907 2.72903 24.5436 3.39497 24.361 4.21696L23.1501 9.66602" stroke="#060404" stroke-width="1.5"/>
<path d="M7.15186 11.9881C7.15186 10.6873 8.20633 9.63281 9.5071 9.63281H26.7789C28.0796 9.63281 29.1341 10.6873 29.1341 11.9881C29.1341 13.2888 28.0796 14.3433 26.7789 14.3433H9.5071C8.20633 14.3433 7.15186 13.2888 7.15186 11.9881Z" stroke="#060404" stroke-width="1.5"/>
<path d="M25.2443 14.6133L27.9354 19.3729M22.8097 36.5955H13.4739C6.75612 36.5955 2.47216 29.7652 5.65706 24.1324L11.0394 14.6133" stroke="#060404" stroke-width="1.5" stroke-linecap="round"/>
</svg>
