<svg xmlns="http://www.w3.org/2000/svg" width="24" height="24" viewBox="0 0 24 24" fill="none">
<path d="M15 12C15 13.6592 13.6592 15 12 15C10.3408 15 9 13.6592 9 12C9 10.3408 10.3408 9 12 9C13.6592 9 15 10.3408 15 12Z" stroke="black" stroke-width="1.5" stroke-linecap="round" stroke-linejoin="round"/>
<path d="M11.9998 19.27C15.5298 19.27 18.8198 17.4413 21.1098 14.2764C22.0098 13.0368 22.0098 10.9532 21.1098 9.71356C18.8198 6.54861 15.5298 4.71997 11.9998 4.71997C8.46984 4.71997 5.17984 6.54861 2.88984 9.71356C1.98984 10.9532 1.98984 13.0368 2.88984 14.2764C5.17984 17.4413 8.46984 19.27 11.9998 19.27Z" stroke="black" stroke-width="1.5" stroke-linecap="round" stroke-linejoin="round"/>
</svg>