<svg xmlns="http://www.w3.org/2000/svg" width="24" height="24" viewBox="0 0 24 24" fill="none">
<path d="M15.6486 5.39465C14.4858 4.95229 13.2581 4.71997 11.9998 4.71997C8.46984 4.71997 5.17984 6.54861 2.88984 9.71356C1.98984 10.9532 1.98984 13.0368 2.88984 14.2764C3.34461 14.9049 3.83882 15.4807 4.36652 16M19.3246 7.69629C19.9691 8.2894 20.5675 8.96401 21.1098 9.71356C22.0098 10.9532 22.0098 13.0368 21.1098 14.2764C18.8198 17.4413 15.5298 19.27 11.9998 19.27C10.6142 19.27 9.26549 18.9882 7.99976 18.4544" stroke="#060404" stroke-width="1.5" stroke-linecap="round" stroke-linejoin="round"/>
<path d="M15 12C15 13.6592 13.6592 15 12 15M14.0996 9.85541C13.5589 9.32599 12.8181 9 12 9C10.3408 9 9 10.3408 9 12C9 12.7293 9.25906 13.3971 9.69035 13.9166" stroke="#060404" stroke-width="1.5" stroke-linecap="round" stroke-linejoin="round"/>
<path d="M2 21L22 2.70007" stroke="#060404" stroke-width="1.5" stroke-linecap="round"/>
</svg>