<svg width="52" height="52" viewBox="0 0 52 52" fill="none" xmlns="http://www.w3.org/2000/svg">
<path d="M19.7842 16.2738C20.0049 17.0919 20.5174 17.8208 21.2418 18.3469C21.9663 18.8731 22.8621 19.167 23.7897 19.183H28.4963C29.4835 19.1533 30.4181 18.7716 31.0976 18.1207C31.777 17.4699 32.1466 16.6021 32.1263 15.7056C32.2291 14.9728 32.0305 14.2314 31.5686 13.6233C31.1067 13.0152 30.4138 12.5832 29.6228 12.4101L22.1124 10.0236C21.3242 9.84599 20.6347 9.41295 20.1736 8.80601C19.7125 8.19906 19.5117 7.46007 19.6089 6.72809C19.5989 6.28335 19.6856 5.84119 19.8639 5.42686C20.0422 5.01253 20.3087 4.63413 20.6481 4.31332C20.9876 3.99251 21.3933 3.73555 21.8421 3.55712C22.291 3.37869 22.7741 3.2823 23.264 3.27344H27.9705C28.8959 3.28422 29.7913 3.57345 30.5162 4.0958C31.241 4.61816 31.7545 5.34413 31.9761 6.15989" stroke="#060404" stroke-width="1.5" stroke-linecap="round" stroke-linejoin="round"/>
<path d="M25.8633 1V21.4551" stroke="#060404" stroke-width="1.5" stroke-linecap="round" stroke-linejoin="round"/>
<path d="M8.09001 45.8189H4.51005C4.03948 45.8275 3.583 45.6731 3.23328 45.3871L1.65607 44.1598C1.43182 43.979 1.25646 43.7537 1.14358 43.5015C1.0307 43.2492 0.98335 42.9768 1.00518 42.7052L1.40571 37.5005C1.4419 37.1096 1.61816 36.7402 1.90751 36.4488C2.19685 36.1573 2.58336 35.96 3.00794 35.8869L5.73677 35.4323C7.83969 32.0686 28.7688 20.9092 36.7299 35.4323C40.6052 35.8838 44.4379 36.5979 48.1958 37.5687C49.0164 37.8214 49.7287 38.3019 50.2318 38.9423C50.735 39.5826 51.0037 40.3504 50.9998 41.137V44.5007C51.0031 44.6728 50.9686 44.8437 50.8984 45.0035C50.8282 45.1633 50.7236 45.3088 50.5908 45.4315C50.4579 45.5542 50.2995 45.6517 50.1247 45.7182C49.9499 45.7847 49.7623 45.819 49.5728 45.8189H45.1166" stroke="#060404" stroke-width="1.5" stroke-linecap="round" stroke-linejoin="round"/>
<path d="M36.6081 35.5244H26.9697" stroke="#060404" stroke-width="1.5" stroke-linecap="round" stroke-linejoin="round"/>
<path d="M39.3832 51.0004C42.4803 51.0004 44.991 48.7211 44.991 45.9094C44.991 43.0977 42.4803 40.8184 39.3832 40.8184C36.2861 40.8184 33.7754 43.0977 33.7754 45.9094C33.7754 48.7211 36.2861 51.0004 39.3832 51.0004Z" stroke="#060404" stroke-width="1.5" stroke-linecap="round" stroke-linejoin="round"/>
<path d="M13.6732 51.0004C16.7703 51.0004 19.281 48.7211 19.281 45.9094C19.281 43.0977 16.7703 40.8184 13.6732 40.8184C10.5761 40.8184 8.06543 43.0977 8.06543 45.9094C8.06543 48.7211 10.5761 51.0004 13.6732 51.0004Z" stroke="#060404" stroke-width="1.5" stroke-linecap="round" stroke-linejoin="round"/>
<path d="M19.2822 45.9092H33.8024" stroke="#060404" stroke-width="1.5" stroke-linecap="round" stroke-linejoin="round"/>
</svg>
