<svg width="40" height="40" viewBox="0 0 40 40" fill="none" xmlns="http://www.w3.org/2000/svg">
<path d="M19.9995 7.62578C19.9995 10.0791 16.306 12.068 11.7498 12.068C7.19355 12.068 3.5 10.0791 3.5 7.62578C3.5 5.17243 7.19355 3.18359 11.7498 3.18359C16.306 3.18359 19.9995 5.17243 19.9995 7.62578Z" stroke="#060404" stroke-width="1.5"/>
<path d="M11.7498 19.6824C16.306 19.6824 19.9995 17.6935 19.9995 15.2402V7.625C19.9995 10.0783 16.306 12.0672 11.7498 12.0672C7.19355 12.0672 3.5 10.0783 3.5 7.625V15.2402C3.5 17.6935 7.19355 19.6824 11.7498 19.6824Z" stroke="#060404" stroke-width="1.5"/>
<path d="M11.7498 27.2976C16.306 27.2976 19.9995 25.3088 19.9995 22.8554V15.2402C19.9995 17.6936 16.306 19.6824 11.7498 19.6824C7.19355 19.6824 3.5 17.6936 3.5 15.2402V22.8554C3.5 25.3088 7.19355 27.2976 11.7498 27.2976Z" stroke="#060404" stroke-width="1.5"/>
<path d="M11.7498 34.9128C16.306 34.9128 19.9995 32.924 19.9995 30.4706V22.8555C19.9995 25.3088 16.306 27.2977 11.7498 27.2977C7.19355 27.2977 3.5 25.3088 3.5 22.8555V30.4706C3.5 32.924 7.19355 34.9128 11.7498 34.9128Z" stroke="#060404" stroke-width="1.5"/>
<path d="M36.4834 17.1453C36.4834 19.5987 32.7899 21.5875 28.2337 21.5875C23.6774 21.5875 19.9839 19.5987 19.9839 17.1453C19.9839 14.692 23.6774 12.7031 28.2337 12.7031C32.7899 12.7031 36.4834 14.692 36.4834 17.1453Z" stroke="#060404" stroke-width="1.5"/>
<path d="M28.2337 29.2019C32.7899 29.2019 36.4834 27.2131 36.4834 24.7597V17.1445C36.4834 19.5979 32.7899 21.5867 28.2337 21.5867C23.6774 21.5867 19.9839 19.5979 19.9839 17.1445V24.7597C19.9839 27.2131 23.6774 29.2019 28.2337 29.2019Z" stroke="#060404" stroke-width="1.5"/>
<path d="M28.2337 36.8171C32.7899 36.8171 36.4834 34.8283 36.4834 32.3749V24.7598C36.4834 27.2131 32.7899 29.2019 28.2337 29.2019C23.6774 29.2019 19.9839 27.2131 19.9839 24.7598V32.3749C19.9839 34.8283 23.6774 36.8171 28.2337 36.8171Z" stroke="#060404" stroke-width="1.5"/>
</svg>
