<svg width="24" height="24" viewBox="0 0 24 24" fill="none" xmlns="http://www.w3.org/2000/svg">
<path fill-rule="evenodd" clip-rule="evenodd" d="M7.56 2.34961C4.07229 2.34961 1.25 5.1889 1.25 8.68961C1.25 12.4391 2.98932 15.3997 5.06577 17.5272C7.13169 19.6439 9.57655 20.9857 11.1343 21.5182C11.4086 21.6143 11.7227 21.6496 12 21.6496C12.2773 21.6496 12.5914 21.6143 12.8657 21.5182C14.4235 20.9857 16.8683 19.6439 18.9342 17.5272C21.0107 15.3997 22.75 12.4391 22.75 8.68961C22.75 5.1889 19.9277 2.34961 16.44 2.34961C14.7122 2.34961 13.1385 3.05525 12.0003 4.19433C10.8646 3.0556 9.29674 2.34961 7.56 2.34961ZM20.2156 11.1947C20.3396 10.7995 20.1197 10.3786 19.7245 10.2546C19.3293 10.1306 18.9084 10.3504 18.7844 10.7456C18.0447 13.1031 16.5095 15.0078 14.8443 16.4291C14.5292 16.6981 14.4918 17.1714 14.7607 17.4865C15.0297 17.8016 15.503 17.839 15.8181 17.57C17.6284 16.0249 19.3678 13.8967 20.2156 11.1947Z" fill="#060404"/>
</svg>
