<svg xmlns="http://www.w3.org/2000/svg" width="24" height="24" viewBox="0 0 24 24" fill="none">
<path d="M17.5895 3.28006C17.5895 5.61006 13.3095 8.28006 13.3095 8.28006C13.3095 8.28006 9.0295 5.63006 9.0295 3.28006C9.02265 2.76721 9.19122 2.26741 9.50728 1.86347C9.82335 1.45953 10.2679 1.1757 10.7674 1.05901C11.2668 0.942317 11.7912 0.999767 12.2535 1.22184C12.7158 1.44391 13.0884 1.81727 13.3095 2.28006C13.5306 1.81727 13.9032 1.44391 14.3655 1.22184C14.8278 0.999767 15.3522 0.942317 15.8516 1.05901C16.3511 1.1757 16.7956 1.45953 17.1117 1.86347C17.4278 2.26741 17.5963 2.76721 17.5895 3.28006Z" fill="#004AAD" stroke="#004AAD" stroke-width="1.5" stroke-linecap="round" stroke-linejoin="round"/>
<path d="M3.67 8.9707H2.78C1.53 8.9707 1 9.4207 1 10.6607V21.2607C1 22.5107 1.53 22.9607 2.78 22.9607H3.67C4.92 22.9607 5.45 22.5107 5.45 21.2607V10.6607C5.48 9.4207 4.92 8.9707 3.67 8.9707Z" stroke="#004AAD" stroke-width="1.5" stroke-linecap="round" stroke-linejoin="round"/>
<path d="M5.7207 20.7194L13.3707 20.8494C14.3237 20.8603 15.2493 20.5305 15.9807 19.9194L22.1207 15.1394C22.5688 14.7969 22.8727 14.2993 22.9726 13.7442C23.0725 13.1891 22.9613 12.6167 22.6607 12.1394C22.38 11.6805 21.9449 11.3368 21.4335 11.17C20.9221 11.0032 20.368 11.0243 19.8707 11.2294L15.1107 13.1694" stroke="#004AAD" stroke-width="1.5" stroke-linecap="round" stroke-linejoin="round"/>
<path d="M10.8007 16.2695L13.7207 15.4695C14.1552 15.3608 14.5356 15.0983 14.7913 14.7305C15.0469 14.3627 15.1604 13.9146 15.1107 13.4695C15.0661 13.0838 14.9025 12.7216 14.6426 12.4331C14.3828 12.1446 14.0396 11.9441 13.6607 11.8595L5.7207 11.6895" stroke="#004AAD" stroke-width="1.5" stroke-linecap="round" stroke-linejoin="round"/>
</svg>