<svg xmlns="http://www.w3.org/2000/svg" width="156" height="29" viewBox="0 0 156 29" fill="none">
<path d="M154.46 27.8789L149.383 27.0664L145.998 25.4414L142.614 21.3789L137.537 10.8164L130.768 13.2539L125.691 11.6289H122.306L118.921 13.2539H115.537L112.152 18.1289L107.075 15.6914L100.306 7.56641L93.5369 12.4414L90.1523 5.94141L85.0753 9.19141L78.3061 5.12891L74.9215 1.06641L69.8446 3.50391L63.0753 4.31641L59.8986 8.37891L54.4951 6.75391L47.8446 3.50391L42.7677 6.75391L35.9984 5.94141L30.9215 7.56641L27.5369 3.50391L24.1523 6.75391L19.0754 7.56641L13.9984 3.50391L12.3061 7.56641L3.84458 14.8789L0.459965 10.8164" stroke="#FF6363"/>
</svg>