<svg xmlns="http://www.w3.org/2000/svg" width="156" height="29" viewBox="0 0 156 29" fill="none">
<path d="M1 12.375L6.07692 11.5625L9.46154 9.9375L12.8462 5.875L17.9231 8.3125L24.6923 10.75V15.625L29.7692 17.25L33.1538 20.5L36.5385 27L39.9231 18.875L43.3077 15.625L48.3846 13.1875L55.1538 14.8125L61.9231 19.6875L65.3077 13.1875L70.3846 16.4375L77.1538 12.375L80.5385 14.8125L85.6154 17.25L92.3846 18.0625L95.5614 22.125L100.965 17.25L104.231 13.1875V8.3125L107.615 1L112.692 4.25L119.462 3.4375L124.538 5.0625L127.923 1L131.308 4.25L136.385 5.0625L141.462 1L143.154 5.0625L151.615 12.375L155 8.3125" stroke="#00B29C"/>
</svg>