<svg width="48" height="47" viewBox="0 0 48 47" fill="none" xmlns="http://www.w3.org/2000/svg">
<path d="M22.915 25.823C21.8625 25.7692 20.8717 25.3535 20.1606 24.6673C19.4495 23.981 19.0763 23.0805 19.1231 22.1637C19.1405 21.7062 19.2619 21.2575 19.4804 20.8437C19.6988 20.4298 20.0098 20.059 20.3955 19.7527C20.7812 19.4464 21.2338 19.2108 21.7272 19.0593C22.2206 18.9079 22.7449 18.8437 23.2699 18.8706L27.7538 19.0995" stroke="#060404" stroke-width="1.5" stroke-linecap="round" stroke-linejoin="round"/>
<path d="M22.9166 25.824L24.9344 25.927C25.9869 25.9807 26.9776 26.3964 27.6887 27.0827C28.3999 27.7689 28.773 28.6695 28.7262 29.5863C28.6794 30.503 28.2165 31.3609 27.4392 31.9712C26.6619 32.5814 25.6339 32.8941 24.5815 32.8404L19.9855 32.6057" stroke="#060404" stroke-width="1.5" stroke-linecap="round" stroke-linejoin="round"/>
<path d="M24.3486 16.7148L24.234 18.9607" stroke="#060404" stroke-width="1.5" stroke-linecap="round" stroke-linejoin="round"/>
<path d="M23.5293 32.7676L23.4146 35.0135" stroke="#060404" stroke-width="1.5" stroke-linecap="round" stroke-linejoin="round"/>
<path d="M44.7257 19.9662C45.5985 22.2201 45.9806 24.5907 45.8524 26.9551C45.6592 30.7403 44.1817 34.3748 41.6068 37.3989C39.0319 40.423 35.4752 42.7009 31.3865 43.9445C27.2978 45.1881 22.8607 45.3416 18.6364 44.3856C14.4121 43.4295 10.5902 41.4069 7.65411 38.5734C4.71799 35.74 2.79954 32.223 2.14129 28.4672C1.48304 24.7114 2.11459 20.8854 3.95608 17.4732C5.79756 14.061 8.76629 11.2157 12.4868 9.29716C16.2073 7.37863 20.5126 6.47302 24.8581 6.69486L37.1217 7.3209" stroke="#060404" stroke-width="1.5" stroke-linecap="round" stroke-linejoin="round"/>
<path d="M31.5459 11.7754L37.1659 7.36304L32.0254 2.38184" stroke="#060404" stroke-width="1.5" stroke-linecap="round" stroke-linejoin="round"/>
</svg>
