<svg width="46" height="29" viewBox="0 0 46 29" fill="none" xmlns="http://www.w3.org/2000/svg">
<path d="M1 5.15385C1 2.85974 2.79086 1 5 1H41C43.2091 1 45 2.85974 45 5.15385V23.8462C45 26.1403 43.2091 28 41 28H5C2.79086 28 1 26.1403 1 23.8462V5.15385Z" stroke="#060404" stroke-width="1.5"/>
<path d="M33 5.82129H36C37.6569 5.82129 39 7.16444 39 8.82129V10.6427" stroke="#060404" stroke-width="1.5" stroke-linecap="round"/>
<path d="M33 23.1787H36C37.6569 23.1787 39 21.8356 39 20.1787V18.3573" stroke="#060404" stroke-width="1.5" stroke-linecap="round"/>
<path d="M13 5.82129H10C8.34315 5.82129 7 7.16444 7 8.82129V10.6427" stroke="#060404" stroke-width="1.5" stroke-linecap="round"/>
<path d="M13 23.1787H10C8.34315 23.1787 7 21.8356 7 20.1787V18.3573" stroke="#060404" stroke-width="1.5" stroke-linecap="round"/>
<path d="M27.5 14.5004C27.5 16.8969 25.4853 18.8397 23 18.8397C20.5147 18.8397 18.5 16.8969 18.5 14.5004C18.5 12.1039 20.5147 10.1611 23 10.1611C25.4853 10.1611 27.5 12.1039 27.5 14.5004Z" stroke="#060404" stroke-width="1.5"/>
</svg>
