<svg width="44" height="44" viewBox="0 0 44 44" fill="none" xmlns="http://www.w3.org/2000/svg">
<path d="M3.6665 19.8618C3.6665 14.5427 6.67317 10.8271 11.3482 10.2013C11.8248 10.1231 12.3198 10.084 12.8332 10.084H31.1665C31.6432 10.084 32.1015 10.1035 32.5415 10.1817C37.2715 10.7684 40.3332 14.5035 40.3332 19.8618V29.6395C40.3332 35.5062 36.6665 39.4173 31.1665 39.4173H21.9998H17.4165" stroke="#060404" stroke-width="1.5" stroke-linecap="round" stroke-linejoin="round"/>
<path d="M15.583 31.6257L3.66634 31.6256M15.583 31.6257L10.9997 27.0423M15.583 31.6257L10.9997 36.209" stroke="#060404" stroke-width="1.5" stroke-linecap="round" stroke-linejoin="round"/>
<path d="M6.15372 12.7979C5.79268 9.53916 7.98631 6.622 11.0533 6.28219L29.1016 4.28257C32.1686 3.94276 34.9476 6.309 35.3087 9.5677L35.4721 11.0428" stroke="#060404" stroke-width="1.5"/>
<path d="M32.9997 21.084H39.333C39.8853 21.084 40.333 21.5317 40.333 22.084V27.4173C40.333 27.9696 39.8853 28.4173 39.333 28.4173H32.9997C30.9746 28.4173 29.333 26.7757 29.333 24.7507C29.333 22.7256 30.9746 21.084 32.9997 21.084Z" stroke="#060404" stroke-width="1.5" stroke-linecap="round"/>
</svg>
