<svg width="222" height="50" viewBox="0 0 222 32" fill="#004AAD" xmlns="http://www.w3.org/2000/svg">
<rect width="212" height="32" rx="8" fill="#004AAD"/>
<path d="M19.3922 15.6875H20.8453C20.8401 16.1875 20.7932 16.5938 20.7047 16.9062C20.6214 17.2135 20.4833 17.4974 20.2906 17.7578C20.1031 18.0182 19.8479 18.3229 19.525 18.6719C19.3063 18.9062 19.0979 19.1328 18.9 19.3516C18.7021 19.5703 18.5406 19.8099 18.4156 20.0703C18.2906 20.3307 18.2281 20.6406 18.2281 21C18.2281 21.3802 18.2958 21.7005 18.4313 21.9609C18.5667 22.2214 18.7646 22.4167 19.025 22.5469C19.2854 22.6823 19.6031 22.75 19.9781 22.75C20.2854 22.75 20.5719 22.6927 20.8375 22.5781C21.1031 22.4635 21.3193 22.2865 21.4859 22.0469C21.6578 21.8125 21.7438 21.5156 21.7438 21.1562H23.1891C23.1839 21.7448 23.038 22.2526 22.7516 22.6797C22.4703 23.112 22.0875 23.4427 21.6031 23.6719C21.124 23.901 20.5823 24.0156 19.9781 24.0156C19.301 24.0156 18.7229 23.8984 18.2438 23.6641C17.7698 23.4297 17.4052 23.0911 17.15 22.6484C16.9 22.2057 16.775 21.6719 16.775 21.0469C16.775 20.5729 16.8688 20.1354 17.0563 19.7344C17.249 19.3281 17.4911 18.9531 17.7828 18.6094C18.0745 18.2604 18.3766 17.9349 18.6891 17.6328C18.8766 17.4505 19.0198 17.2604 19.1188 17.0625C19.2229 16.8594 19.2932 16.6432 19.3297 16.4141C19.3714 16.1849 19.3922 15.9427 19.3922 15.6875ZM20.9078 13.2109C20.9078 13.4401 20.8349 13.6354 20.6891 13.7969C20.5432 13.9583 20.3323 14.0391 20.0563 14.0391C19.775 14.0391 19.5615 13.9583 19.4156 13.7969C19.2698 13.6354 19.1969 13.4401 19.1969 13.2109C19.1969 12.9818 19.2698 12.7891 19.4156 12.6328C19.5615 12.4714 19.775 12.3906 20.0563 12.3906C20.3323 12.3906 20.5432 12.4714 20.6891 12.6328C20.8349 12.7891 20.9078 12.9818 20.9078 13.2109ZM34.0422 9.625V21H32.5266L26.8 12.2266V21H25.2922V9.625H26.8L32.55 18.4219V9.625H34.0422ZM40.1531 21.1562C39.5646 21.1562 39.0307 21.0573 38.5516 20.8594C38.0776 20.6562 37.6688 20.3724 37.325 20.0078C36.9865 19.6432 36.726 19.2109 36.5438 18.7109C36.3615 18.2109 36.2703 17.6641 36.2703 17.0703V16.7422C36.2703 16.0547 36.3719 15.4427 36.575 14.9062C36.7781 14.3646 37.0542 13.9062 37.4031 13.5312C37.7521 13.1562 38.1479 12.8724 38.5906 12.6797C39.0333 12.487 39.4917 12.3906 39.9656 12.3906C40.5698 12.3906 41.0906 12.4948 41.5281 12.7031C41.9708 12.9115 42.3328 13.2031 42.6141 13.5781C42.8953 13.9479 43.1036 14.3854 43.2391 14.8906C43.3745 15.3906 43.4422 15.9375 43.4422 16.5312V17.1797H37.1297V16H41.9969V15.8906C41.976 15.5156 41.8979 15.151 41.7625 14.7969C41.6323 14.4427 41.424 14.151 41.1375 13.9219C40.851 13.6927 40.4604 13.5781 39.9656 13.5781C39.6375 13.5781 39.3354 13.6484 39.0594 13.7891C38.7833 13.9245 38.5464 14.1276 38.3484 14.3984C38.1505 14.6693 37.9969 15 37.8875 15.3906C37.7781 15.7812 37.7234 16.2318 37.7234 16.7422V17.0703C37.7234 17.4714 37.7781 17.849 37.8875 18.2031C38.0021 18.5521 38.1661 18.8594 38.3797 19.125C38.5984 19.3906 38.8615 19.599 39.1688 19.75C39.4813 19.901 39.8354 19.9766 40.2313 19.9766C40.7417 19.9766 41.174 19.8724 41.5281 19.6641C41.8823 19.4557 42.1922 19.1771 42.4578 18.8281L43.3328 19.5234C43.1505 19.7995 42.9188 20.0625 42.6375 20.3125C42.3563 20.5625 42.0099 20.7656 41.5984 20.9219C41.1922 21.0781 40.7104 21.1562 40.1531 21.1562ZM48.6625 19.9688C49.0063 19.9688 49.324 19.8984 49.6156 19.7578C49.9073 19.6172 50.1469 19.4245 50.3344 19.1797C50.5219 18.9297 50.6286 18.6458 50.6547 18.3281H52.0297C52.0036 18.8281 51.8344 19.2943 51.5219 19.7266C51.2146 20.1536 50.8109 20.5 50.3109 20.7656C49.8109 21.026 49.2615 21.1562 48.6625 21.1562C48.0271 21.1562 47.4724 21.0443 46.9984 20.8203C46.5297 20.5964 46.1391 20.2891 45.8266 19.8984C45.5193 19.5078 45.2875 19.0599 45.1313 18.5547C44.9802 18.0443 44.9047 17.5052 44.9047 16.9375V16.6094C44.9047 16.0417 44.9802 15.5052 45.1313 15C45.2875 14.4896 45.5193 14.0391 45.8266 13.6484C46.1391 13.2578 46.5297 12.9505 46.9984 12.7266C47.4724 12.5026 48.0271 12.3906 48.6625 12.3906C49.324 12.3906 49.9021 12.526 50.3969 12.7969C50.8917 13.0625 51.2797 13.4271 51.5609 13.8906C51.8474 14.349 52.0036 14.8698 52.0297 15.4531H50.6547C50.6286 15.1042 50.5297 14.7891 50.3578 14.5078C50.1911 14.2266 49.962 14.0026 49.6703 13.8359C49.3839 13.6641 49.0479 13.5781 48.6625 13.5781C48.2198 13.5781 47.8474 13.6667 47.5453 13.8438C47.2484 14.0156 47.0115 14.25 46.8344 14.5469C46.6625 14.8385 46.5375 15.1641 46.4594 15.5234C46.3865 15.8776 46.35 16.2396 46.35 16.6094V16.9375C46.35 17.3073 46.3865 17.6719 46.4594 18.0312C46.5323 18.3906 46.6547 18.7161 46.8266 19.0078C47.0036 19.2995 47.2406 19.5339 47.5375 19.7109C47.8396 19.8828 48.2146 19.9688 48.6625 19.9688ZM57.3125 21.1562C56.724 21.1562 56.1901 21.0573 55.7109 20.8594C55.237 20.6562 54.8281 20.3724 54.4844 20.0078C54.1458 19.6432 53.8854 19.2109 53.7031 18.7109C53.5208 18.2109 53.4297 17.6641 53.4297 17.0703V16.7422C53.4297 16.0547 53.5312 15.4427 53.7344 14.9062C53.9375 14.3646 54.2135 13.9062 54.5625 13.5312C54.9115 13.1562 55.3073 12.8724 55.75 12.6797C56.1927 12.487 56.651 12.3906 57.125 12.3906C57.7292 12.3906 58.25 12.4948 58.6875 12.7031C59.1302 12.9115 59.4922 13.2031 59.7734 13.5781C60.0547 13.9479 60.263 14.3854 60.3984 14.8906C60.5339 15.3906 60.6016 15.9375 60.6016 16.5312V17.1797H54.2891V16H59.1562V15.8906C59.1354 15.5156 59.0573 15.151 58.9219 14.7969C58.7917 14.4427 58.5833 14.151 58.2969 13.9219C58.0104 13.6927 57.6198 13.5781 57.125 13.5781C56.7969 13.5781 56.4948 13.6484 56.2188 13.7891C55.9427 13.9245 55.7057 14.1276 55.5078 14.3984C55.3099 14.6693 55.1562 15 55.0469 15.3906C54.9375 15.7812 54.8828 16.2318 54.8828 16.7422V17.0703C54.8828 17.4714 54.9375 17.849 55.0469 18.2031C55.1615 18.5521 55.3255 18.8594 55.5391 19.125C55.7578 19.3906 56.0208 19.599 56.3281 19.75C56.6406 19.901 56.9948 19.9766 57.3906 19.9766C57.901 19.9766 58.3333 19.8724 58.6875 19.6641C59.0417 19.4557 59.3516 19.1771 59.6172 18.8281L60.4922 19.5234C60.3099 19.7995 60.0781 20.0625 59.7969 20.3125C59.5156 20.5625 59.1693 20.7656 58.7578 20.9219C58.3516 21.0781 57.8698 21.1562 57.3125 21.1562ZM67.3609 18.7578C67.3609 18.5495 67.3141 18.3568 67.2203 18.1797C67.1318 17.9974 66.9469 17.8333 66.6656 17.6875C66.3896 17.5365 65.9729 17.4062 65.4156 17.2969C64.9469 17.1979 64.5224 17.0807 64.1422 16.9453C63.7672 16.8099 63.4469 16.6458 63.1813 16.4531C62.9208 16.2604 62.7203 16.0339 62.5797 15.7734C62.4391 15.513 62.3688 15.2083 62.3688 14.8594C62.3688 14.526 62.4417 14.2109 62.5875 13.9141C62.7385 13.6172 62.9495 13.3542 63.2203 13.125C63.4964 12.8958 63.8271 12.7161 64.2125 12.5859C64.5979 12.4557 65.0276 12.3906 65.5016 12.3906C66.1786 12.3906 66.7568 12.5104 67.2359 12.75C67.7151 12.9896 68.0823 13.3099 68.3375 13.7109C68.5927 14.1068 68.7203 14.5469 68.7203 15.0312H67.275C67.275 14.7969 67.2047 14.5703 67.0641 14.3516C66.9286 14.1276 66.7281 13.9427 66.4625 13.7969C66.2021 13.651 65.8818 13.5781 65.5016 13.5781C65.1005 13.5781 64.775 13.6406 64.525 13.7656C64.2802 13.8854 64.1005 14.0391 63.9859 14.2266C63.8766 14.4141 63.8219 14.612 63.8219 14.8203C63.8219 14.9766 63.8479 15.1172 63.9 15.2422C63.9573 15.362 64.0563 15.474 64.1969 15.5781C64.3375 15.6771 64.5354 15.7708 64.7906 15.8594C65.0458 15.9479 65.3714 16.0365 65.7672 16.125C66.4599 16.2812 67.0302 16.4688 67.4781 16.6875C67.926 16.9062 68.2594 17.1745 68.4781 17.4922C68.6969 17.8099 68.8063 18.1953 68.8063 18.6484C68.8063 19.0182 68.7281 19.3568 68.5719 19.6641C68.4208 19.9714 68.1995 20.237 67.9078 20.4609C67.6214 20.6797 67.2776 20.8516 66.8766 20.9766C66.4807 21.0964 66.0354 21.1562 65.5406 21.1562C64.7958 21.1562 64.1656 21.0234 63.65 20.7578C63.1344 20.4922 62.7438 20.1484 62.4781 19.7266C62.2125 19.3047 62.0797 18.8594 62.0797 18.3906H63.5328C63.5536 18.7865 63.6682 19.1016 63.8766 19.3359C64.0849 19.5651 64.3401 19.7292 64.6422 19.8281C64.9443 19.9219 65.2438 19.9688 65.5406 19.9688C65.9365 19.9688 66.2672 19.9167 66.5328 19.8125C66.8036 19.7083 67.0094 19.5651 67.15 19.3828C67.2906 19.2005 67.3609 18.9922 67.3609 18.7578ZM72.425 12.5469V21H70.9719V12.5469H72.425ZM70.8625 10.3047C70.8625 10.0703 70.9328 9.8724 71.0734 9.71094C71.2193 9.54948 71.4328 9.46875 71.7141 9.46875C71.9901 9.46875 72.201 9.54948 72.3469 9.71094C72.4979 9.8724 72.5734 10.0703 72.5734 10.3047C72.5734 10.5286 72.4979 10.7214 72.3469 10.8828C72.201 11.0391 71.9901 11.1172 71.7141 11.1172C71.4328 11.1172 71.2193 11.0391 71.0734 10.8828C70.9328 10.7214 70.8625 10.5286 70.8625 10.3047ZM78.4344 12.5469V13.6562H73.8641V12.5469H78.4344ZM75.4109 10.4922H76.8563V18.9062C76.8563 19.1927 76.9005 19.4089 76.9891 19.5547C77.0776 19.7005 77.1922 19.7969 77.3328 19.8438C77.4734 19.8906 77.6245 19.9141 77.7859 19.9141C77.9057 19.9141 78.0307 19.9036 78.1609 19.8828C78.2964 19.8568 78.3979 19.8359 78.4656 19.8203L78.4734 21C78.3589 21.0365 78.2078 21.0703 78.0203 21.1016C77.838 21.138 77.6167 21.1562 77.3563 21.1562C77.0021 21.1562 76.6766 21.0859 76.3797 20.9453C76.0828 20.8047 75.8458 20.5703 75.6688 20.2422C75.4969 19.9089 75.4109 19.4609 75.4109 18.8984V10.4922ZM85.2641 19.5547V15.2031C85.2641 14.8698 85.1964 14.5807 85.0609 14.3359C84.9307 14.0859 84.7328 13.8932 84.4672 13.7578C84.2016 13.6224 83.8734 13.5547 83.4828 13.5547C83.1182 13.5547 82.7979 13.6172 82.5219 13.7422C82.251 13.8672 82.0375 14.0312 81.8813 14.2344C81.7302 14.4375 81.6547 14.6562 81.6547 14.8906H80.2094C80.2094 14.5885 80.2875 14.2891 80.4438 13.9922C80.6 13.6953 80.824 13.4271 81.1156 13.1875C81.4125 12.9427 81.7667 12.75 82.1781 12.6094C82.5948 12.4635 83.0583 12.3906 83.5688 12.3906C84.1833 12.3906 84.725 12.4948 85.1938 12.7031C85.6677 12.9115 86.0375 13.2266 86.3031 13.6484C86.574 14.0651 86.7094 14.5885 86.7094 15.2188V19.1562C86.7094 19.4375 86.7328 19.737 86.7797 20.0547C86.8318 20.3724 86.9073 20.6458 87.0063 20.875V21H85.4984C85.4255 20.8333 85.3682 20.612 85.3266 20.3359C85.2849 20.0547 85.2641 19.7943 85.2641 19.5547ZM85.5141 15.875L85.5297 16.8906H84.0688C83.6573 16.8906 83.2901 16.9245 82.9672 16.9922C82.6443 17.0547 82.3734 17.151 82.1547 17.2812C81.9359 17.4115 81.7693 17.5755 81.6547 17.7734C81.5401 17.9661 81.4828 18.1927 81.4828 18.4531C81.4828 18.7188 81.5427 18.9609 81.6625 19.1797C81.7823 19.3984 81.962 19.5729 82.2016 19.7031C82.4464 19.8281 82.7458 19.8906 83.1 19.8906C83.5427 19.8906 83.9333 19.7969 84.2719 19.6094C84.6104 19.4219 84.8786 19.1927 85.0766 18.9219C85.2797 18.651 85.3891 18.388 85.4047 18.1328L86.0219 18.8281C85.9854 19.0469 85.8865 19.2891 85.725 19.5547C85.5635 19.8203 85.3474 20.0755 85.0766 20.3203C84.8109 20.5599 84.4932 20.7604 84.1234 20.9219C83.7589 21.0781 83.3474 21.1562 82.8891 21.1562C82.3161 21.1562 81.8135 21.0443 81.3813 20.8203C80.9542 20.5964 80.6208 20.2969 80.3813 19.9219C80.1469 19.5417 80.0297 19.1172 80.0297 18.6484C80.0297 18.1953 80.1182 17.7969 80.2953 17.4531C80.4724 17.1042 80.7276 16.8151 81.0609 16.5859C81.3943 16.3516 81.7953 16.1745 82.2641 16.0547C82.7328 15.9349 83.2563 15.875 83.8344 15.875H85.5141ZM94.0547 18.7578C94.0547 18.5495 94.0078 18.3568 93.9141 18.1797C93.8255 17.9974 93.6406 17.8333 93.3594 17.6875C93.0833 17.5365 92.6667 17.4062 92.1094 17.2969C91.6406 17.1979 91.2161 17.0807 90.8359 16.9453C90.4609 16.8099 90.1406 16.6458 89.875 16.4531C89.6146 16.2604 89.4141 16.0339 89.2734 15.7734C89.1328 15.513 89.0625 15.2083 89.0625 14.8594C89.0625 14.526 89.1354 14.2109 89.2812 13.9141C89.4323 13.6172 89.6432 13.3542 89.9141 13.125C90.1901 12.8958 90.5208 12.7161 90.9062 12.5859C91.2917 12.4557 91.7214 12.3906 92.1953 12.3906C92.8724 12.3906 93.4505 12.5104 93.9297 12.75C94.4089 12.9896 94.776 13.3099 95.0312 13.7109C95.2865 14.1068 95.4141 14.5469 95.4141 15.0312H93.9688C93.9688 14.7969 93.8984 14.5703 93.7578 14.3516C93.6224 14.1276 93.4219 13.9427 93.1562 13.7969C92.8958 13.651 92.5755 13.5781 92.1953 13.5781C91.7943 13.5781 91.4688 13.6406 91.2188 13.7656C90.974 13.8854 90.7943 14.0391 90.6797 14.2266C90.5703 14.4141 90.5156 14.612 90.5156 14.8203C90.5156 14.9766 90.5417 15.1172 90.5938 15.2422C90.651 15.362 90.75 15.474 90.8906 15.5781C91.0312 15.6771 91.2292 15.7708 91.4844 15.8594C91.7396 15.9479 92.0651 16.0365 92.4609 16.125C93.1536 16.2812 93.724 16.4688 94.1719 16.6875C94.6198 16.9062 94.9531 17.1745 95.1719 17.4922C95.3906 17.8099 95.5 18.1953 95.5 18.6484C95.5 19.0182 95.4219 19.3568 95.2656 19.6641C95.1146 19.9714 94.8932 20.237 94.6016 20.4609C94.3151 20.6797 93.9714 20.8516 93.5703 20.9766C93.1745 21.0964 92.7292 21.1562 92.2344 21.1562C91.4896 21.1562 90.8594 21.0234 90.3438 20.7578C89.8281 20.4922 89.4375 20.1484 89.1719 19.7266C88.9062 19.3047 88.7734 18.8594 88.7734 18.3906H90.2266C90.2474 18.7865 90.362 19.1016 90.5703 19.3359C90.7786 19.5651 91.0339 19.7292 91.3359 19.8281C91.638 19.9219 91.9375 19.9688 92.2344 19.9688C92.6302 19.9688 92.9609 19.9167 93.2266 19.8125C93.4974 19.7083 93.7031 19.5651 93.8438 19.3828C93.9844 19.2005 94.0547 18.9922 94.0547 18.7578ZM106.652 19.5547V15.2031C106.652 14.8698 106.584 14.5807 106.448 14.3359C106.318 14.0859 106.12 13.8932 105.855 13.7578C105.589 13.6224 105.261 13.5547 104.87 13.5547C104.506 13.5547 104.185 13.6172 103.909 13.7422C103.639 13.8672 103.425 14.0312 103.269 14.2344C103.118 14.4375 103.042 14.6562 103.042 14.8906H101.597C101.597 14.5885 101.675 14.2891 101.831 13.9922C101.988 13.6953 102.211 13.4271 102.503 13.1875C102.8 12.9427 103.154 12.75 103.566 12.6094C103.982 12.4635 104.446 12.3906 104.956 12.3906C105.571 12.3906 106.113 12.4948 106.581 12.7031C107.055 12.9115 107.425 13.2266 107.691 13.6484C107.961 14.0651 108.097 14.5885 108.097 15.2188V19.1562C108.097 19.4375 108.12 19.737 108.167 20.0547C108.219 20.3724 108.295 20.6458 108.394 20.875V21H106.886C106.813 20.8333 106.756 20.612 106.714 20.3359C106.672 20.0547 106.652 19.7943 106.652 19.5547ZM106.902 15.875L106.917 16.8906H105.456C105.045 16.8906 104.678 16.9245 104.355 16.9922C104.032 17.0547 103.761 17.151 103.542 17.2812C103.323 17.4115 103.157 17.5755 103.042 17.7734C102.928 17.9661 102.87 18.1927 102.87 18.4531C102.87 18.7188 102.93 18.9609 103.05 19.1797C103.17 19.3984 103.349 19.5729 103.589 19.7031C103.834 19.8281 104.133 19.8906 104.488 19.8906C104.93 19.8906 105.321 19.7969 105.659 19.6094C105.998 19.4219 106.266 19.1927 106.464 18.9219C106.667 18.651 106.777 18.388 106.792 18.1328L107.409 18.8281C107.373 19.0469 107.274 19.2891 107.113 19.5547C106.951 19.8203 106.735 20.0755 106.464 20.3203C106.198 20.5599 105.881 20.7604 105.511 20.9219C105.146 21.0781 104.735 21.1562 104.277 21.1562C103.704 21.1562 103.201 21.0443 102.769 20.8203C102.342 20.5964 102.008 20.2969 101.769 19.9219C101.534 19.5417 101.417 19.1172 101.417 18.6484C101.417 18.1953 101.506 17.7969 101.683 17.4531C101.86 17.1042 102.115 16.8151 102.448 16.5859C102.782 16.3516 103.183 16.1745 103.652 16.0547C104.12 15.9349 104.644 15.875 105.222 15.875H106.902ZM112.77 20.125L115.122 12.5469H116.669L113.278 22.3047C113.2 22.513 113.096 22.737 112.966 22.9766C112.841 23.2214 112.679 23.4531 112.481 23.6719C112.283 23.8906 112.044 24.0677 111.763 24.2031C111.486 24.3438 111.156 24.4141 110.77 24.4141C110.656 24.4141 110.51 24.3984 110.333 24.3672C110.156 24.3359 110.031 24.3099 109.958 24.2891L109.95 23.1172C109.992 23.1224 110.057 23.1276 110.145 23.1328C110.239 23.1432 110.304 23.1484 110.341 23.1484C110.669 23.1484 110.947 23.1042 111.177 23.0156C111.406 22.9323 111.598 22.7891 111.755 22.5859C111.916 22.388 112.054 22.1146 112.169 21.7656L112.77 20.125ZM111.044 12.5469L113.239 19.1094L113.614 20.6328L112.575 21.1641L109.466 12.5469H111.044ZM123.295 19.0469V12.5469H124.748V21H123.366L123.295 19.0469ZM123.569 17.2656L124.17 17.25C124.17 17.8125 124.11 18.3333 123.991 18.8125C123.876 19.2865 123.689 19.6979 123.428 20.0469C123.168 20.3958 122.827 20.6693 122.405 20.8672C121.983 21.0599 121.47 21.1562 120.866 21.1562C120.454 21.1562 120.077 21.0964 119.733 20.9766C119.394 20.8568 119.103 20.6719 118.858 20.4219C118.613 20.1719 118.423 19.8464 118.287 19.4453C118.157 19.0443 118.092 18.5625 118.092 18V12.5469H119.537V18.0156C119.537 18.3958 119.579 18.7109 119.662 18.9609C119.751 19.2057 119.868 19.401 120.014 19.5469C120.165 19.6875 120.332 19.7865 120.514 19.8438C120.702 19.901 120.894 19.9297 121.092 19.9297C121.707 19.9297 122.194 19.8125 122.553 19.5781C122.912 19.3385 123.17 19.0182 123.327 18.6172C123.488 18.2109 123.569 17.7604 123.569 17.2656ZM132.43 19.3594V9H133.883V21H132.555L132.43 19.3594ZM126.742 16.8672V16.7031C126.742 16.0573 126.82 15.4714 126.977 14.9453C127.138 14.4141 127.365 13.9583 127.656 13.5781C127.953 13.1979 128.305 12.9062 128.711 12.7031C129.122 12.4948 129.581 12.3906 130.086 12.3906C130.617 12.3906 131.081 12.4844 131.477 12.6719C131.878 12.8542 132.216 13.1224 132.492 13.4766C132.773 13.8255 132.995 14.2474 133.156 14.7422C133.318 15.237 133.43 15.7969 133.492 16.4219V17.1406C133.435 17.7604 133.323 18.3177 133.156 18.8125C132.995 19.3073 132.773 19.7292 132.492 20.0781C132.216 20.4271 131.878 20.6953 131.477 20.8828C131.076 21.0651 130.607 21.1562 130.07 21.1562C129.576 21.1562 129.122 21.0495 128.711 20.8359C128.305 20.6224 127.953 20.3229 127.656 19.9375C127.365 19.5521 127.138 19.099 126.977 18.5781C126.82 18.0521 126.742 17.4818 126.742 16.8672ZM128.195 16.7031V16.8672C128.195 17.2891 128.237 17.6849 128.32 18.0547C128.409 18.4245 128.544 18.75 128.727 19.0312C128.909 19.3125 129.141 19.5339 129.422 19.6953C129.703 19.8516 130.039 19.9297 130.43 19.9297C130.909 19.9297 131.302 19.8281 131.609 19.625C131.922 19.4219 132.172 19.1536 132.359 18.8203C132.547 18.487 132.693 18.125 132.797 17.7344V15.8516C132.734 15.5651 132.643 15.2891 132.523 15.0234C132.409 14.7526 132.258 14.513 132.07 14.3047C131.888 14.0911 131.661 13.9219 131.391 13.7969C131.125 13.6719 130.81 13.6094 130.445 13.6094C130.049 13.6094 129.708 13.6927 129.422 13.8594C129.141 14.0208 128.909 14.2448 128.727 14.5312C128.544 14.8125 128.409 15.1406 128.32 15.5156C128.237 15.8854 128.195 16.2812 128.195 16.7031ZM141.267 19.5547V15.2031C141.267 14.8698 141.199 14.5807 141.064 14.3359C140.934 14.0859 140.736 13.8932 140.47 13.7578C140.205 13.6224 139.877 13.5547 139.486 13.5547C139.121 13.5547 138.801 13.6172 138.525 13.7422C138.254 13.8672 138.041 14.0312 137.884 14.2344C137.733 14.4375 137.658 14.6562 137.658 14.8906H136.213C136.213 14.5885 136.291 14.2891 136.447 13.9922C136.603 13.6953 136.827 13.4271 137.119 13.1875C137.416 12.9427 137.77 12.75 138.181 12.6094C138.598 12.4635 139.061 12.3906 139.572 12.3906C140.186 12.3906 140.728 12.4948 141.197 12.7031C141.671 12.9115 142.041 13.2266 142.306 13.6484C142.577 14.0651 142.713 14.5885 142.713 15.2188V19.1562C142.713 19.4375 142.736 19.737 142.783 20.0547C142.835 20.3724 142.91 20.6458 143.009 20.875V21H141.502C141.429 20.8333 141.371 20.612 141.33 20.3359C141.288 20.0547 141.267 19.7943 141.267 19.5547ZM141.517 15.875L141.533 16.8906H140.072C139.66 16.8906 139.293 16.9245 138.97 16.9922C138.647 17.0547 138.377 17.151 138.158 17.2812C137.939 17.4115 137.772 17.5755 137.658 17.7734C137.543 17.9661 137.486 18.1927 137.486 18.4531C137.486 18.7188 137.546 18.9609 137.666 19.1797C137.785 19.3984 137.965 19.5729 138.205 19.7031C138.449 19.8281 138.749 19.8906 139.103 19.8906C139.546 19.8906 139.936 19.7969 140.275 19.6094C140.614 19.4219 140.882 19.1927 141.08 18.9219C141.283 18.651 141.392 18.388 141.408 18.1328L142.025 18.8281C141.989 19.0469 141.89 19.2891 141.728 19.5547C141.567 19.8203 141.351 20.0755 141.08 20.3203C140.814 20.5599 140.496 20.7604 140.127 20.9219C139.762 21.0781 139.351 21.1562 138.892 21.1562C138.319 21.1562 137.817 21.0443 137.384 20.8203C136.957 20.5964 136.624 20.2969 136.384 19.9219C136.15 19.5417 136.033 19.1172 136.033 18.6484C136.033 18.1953 136.121 17.7969 136.298 17.4531C136.476 17.1042 136.731 16.8151 137.064 16.5859C137.397 16.3516 137.798 16.1745 138.267 16.0547C138.736 15.9349 139.259 15.875 139.838 15.875H141.517ZM158.231 14.9531V15.6719C158.231 16.526 158.124 17.2917 157.911 17.9688C157.697 18.6458 157.39 19.2214 156.989 19.6953C156.588 20.1693 156.106 20.5312 155.544 20.7812C154.986 21.0312 154.361 21.1562 153.669 21.1562C152.997 21.1562 152.38 21.0312 151.817 20.7812C151.26 20.5312 150.776 20.1693 150.364 19.6953C149.958 19.2214 149.643 18.6458 149.419 17.9688C149.195 17.2917 149.083 16.526 149.083 15.6719V14.9531C149.083 14.099 149.192 13.3359 149.411 12.6641C149.635 11.987 149.95 11.4115 150.356 10.9375C150.763 10.4583 151.244 10.0938 151.802 9.84375C152.364 9.59375 152.981 9.46875 153.653 9.46875C154.346 9.46875 154.971 9.59375 155.528 9.84375C156.091 10.0938 156.572 10.4583 156.973 10.9375C157.38 11.4115 157.69 11.987 157.903 12.6641C158.122 13.3359 158.231 14.099 158.231 14.9531ZM156.739 15.6719V14.9375C156.739 14.2604 156.669 13.6615 156.528 13.1406C156.393 12.6198 156.192 12.1823 155.927 11.8281C155.661 11.474 155.335 11.2057 154.95 11.0234C154.57 10.8411 154.138 10.75 153.653 10.75C153.184 10.75 152.76 10.8411 152.38 11.0234C152.005 11.2057 151.682 11.474 151.411 11.8281C151.145 12.1823 150.94 12.6198 150.794 13.1406C150.648 13.6615 150.575 14.2604 150.575 14.9375V15.6719C150.575 16.3542 150.648 16.9583 150.794 17.4844C150.94 18.0052 151.148 18.4453 151.419 18.8047C151.695 19.1589 152.02 19.4271 152.395 19.6094C152.776 19.7917 153.2 19.8828 153.669 19.8828C154.158 19.8828 154.593 19.7917 154.973 19.6094C155.354 19.4271 155.674 19.1589 155.934 18.8047C156.2 18.4453 156.401 18.0052 156.536 17.4844C156.671 16.9583 156.739 16.3542 156.739 15.6719ZM161.991 9V21H160.538V9H161.991ZM166.031 12.5469V21H164.578V12.5469H166.031ZM164.469 10.3047C164.469 10.0703 164.539 9.8724 164.68 9.71094C164.826 9.54948 165.039 9.46875 165.32 9.46875C165.596 9.46875 165.807 9.54948 165.953 9.71094C166.104 9.8724 166.18 10.0703 166.18 10.3047C166.18 10.5286 166.104 10.7214 165.953 10.8828C165.807 11.0391 165.596 11.1172 165.32 11.1172C165.039 11.1172 164.826 11.0391 164.68 10.8828C164.539 10.7214 164.469 10.5286 164.469 10.3047ZM171.072 19.6953L173.384 12.5469H174.861L171.822 21H170.853L171.072 19.6953ZM169.142 12.5469L171.525 19.7344L171.689 21H170.72L167.658 12.5469H169.142ZM177.972 12.5469V21H176.519V12.5469H177.972ZM176.409 10.3047C176.409 10.0703 176.48 9.8724 176.62 9.71094C176.766 9.54948 176.98 9.46875 177.261 9.46875C177.537 9.46875 177.748 9.54948 177.894 9.71094C178.045 9.8724 178.12 10.0703 178.12 10.3047C178.12 10.5286 178.045 10.7214 177.894 10.8828C177.748 11.0391 177.537 11.1172 177.261 11.1172C176.98 11.1172 176.766 11.0391 176.62 10.8828C176.48 10.7214 176.409 10.5286 176.409 10.3047ZM185.427 19.5547V15.2031C185.427 14.8698 185.359 14.5807 185.223 14.3359C185.093 14.0859 184.895 13.8932 184.63 13.7578C184.364 13.6224 184.036 13.5547 183.645 13.5547C183.281 13.5547 182.96 13.6172 182.684 13.7422C182.414 13.8672 182.2 14.0312 182.044 14.2344C181.893 14.4375 181.817 14.6562 181.817 14.8906H180.372C180.372 14.5885 180.45 14.2891 180.606 13.9922C180.763 13.6953 180.986 13.4271 181.278 13.1875C181.575 12.9427 181.929 12.75 182.341 12.6094C182.757 12.4635 183.221 12.3906 183.731 12.3906C184.346 12.3906 184.888 12.4948 185.356 12.7031C185.83 12.9115 186.2 13.2266 186.466 13.6484C186.736 14.0651 186.872 14.5885 186.872 15.2188V19.1562C186.872 19.4375 186.895 19.737 186.942 20.0547C186.994 20.3724 187.07 20.6458 187.169 20.875V21H185.661C185.588 20.8333 185.531 20.612 185.489 20.3359C185.447 20.0547 185.427 19.7943 185.427 19.5547ZM185.677 15.875L185.692 16.8906H184.231C183.82 16.8906 183.453 16.9245 183.13 16.9922C182.807 17.0547 182.536 17.151 182.317 17.2812C182.098 17.4115 181.932 17.5755 181.817 17.7734C181.703 17.9661 181.645 18.1927 181.645 18.4531C181.645 18.7188 181.705 18.9609 181.825 19.1797C181.945 19.3984 182.124 19.5729 182.364 19.7031C182.609 19.8281 182.908 19.8906 183.263 19.8906C183.705 19.8906 184.096 19.7969 184.434 19.6094C184.773 19.4219 185.041 19.1927 185.239 18.9219C185.442 18.651 185.552 18.388 185.567 18.1328L186.184 18.8281C186.148 19.0469 186.049 19.2891 185.888 19.5547C185.726 19.8203 185.51 20.0755 185.239 20.3203C184.973 20.5599 184.656 20.7604 184.286 20.9219C183.921 21.0781 183.51 21.1562 183.052 21.1562C182.479 21.1562 181.976 21.0443 181.544 20.8203C181.117 20.5964 180.783 20.2969 180.544 19.9219C180.309 19.5417 180.192 19.1172 180.192 18.6484C180.192 18.1953 180.281 17.7969 180.458 17.4531C180.635 17.1042 180.89 16.8151 181.223 16.5859C181.557 16.3516 181.958 16.1745 182.427 16.0547C182.895 15.9349 183.419 15.875 183.997 15.875H185.677ZM192.436 17.7969H190.983C190.988 17.2969 191.032 16.888 191.116 16.5703C191.204 16.2474 191.347 15.9531 191.545 15.6875C191.743 15.4219 192.006 15.1198 192.334 14.7812C192.574 14.5365 192.793 14.3073 192.991 14.0938C193.194 13.875 193.358 13.6406 193.483 13.3906C193.608 13.1354 193.67 12.8307 193.67 12.4766C193.67 12.1172 193.605 11.8073 193.475 11.5469C193.35 11.2865 193.163 11.0859 192.913 10.9453C192.668 10.8047 192.363 10.7344 191.998 10.7344C191.696 10.7344 191.41 10.7891 191.139 10.8984C190.868 11.0078 190.649 11.1771 190.483 11.4062C190.316 11.6302 190.23 11.9245 190.225 12.2891H188.78C188.79 11.7005 188.936 11.1953 189.217 10.7734C189.504 10.3516 189.889 10.0286 190.373 9.80469C190.858 9.58073 191.399 9.46875 191.998 9.46875C192.66 9.46875 193.222 9.58854 193.686 9.82812C194.155 10.0677 194.511 10.4115 194.756 10.8594C195.001 11.3021 195.123 11.8281 195.123 12.4375C195.123 12.9062 195.027 13.3385 194.834 13.7344C194.647 14.125 194.405 14.4922 194.108 14.8359C193.811 15.1797 193.496 15.5078 193.163 15.8203C192.876 16.0859 192.683 16.3854 192.584 16.7188C192.485 17.0521 192.436 17.4115 192.436 17.7969ZM190.92 20.2734C190.92 20.0391 190.993 19.8411 191.139 19.6797C191.285 19.5182 191.496 19.4375 191.772 19.4375C192.053 19.4375 192.267 19.5182 192.413 19.6797C192.558 19.8411 192.631 20.0391 192.631 20.2734C192.631 20.4974 192.558 20.6901 192.413 20.8516C192.267 21.013 192.053 21.0938 191.772 21.0938C191.496 21.0938 191.285 21.013 191.139 20.8516C190.993 20.6901 190.92 20.4974 190.92 20.2734Z" fill="#F1EEFE"/>
<path d="M222 15.5L206.25 27.1913L206.25 3.80866L222 15.5Z" fill="#004AADA6"/>
</svg>
